<?xml version="1.0" standalone="no"?>
<!DOCTYPE svg PUBLIC "-//W3C//DTD SVG 20010904//EN"
 "http://www.w3.org/TR/2001/REC-SVG-20010904/DTD/svg10.dtd">
<svg version="1.0" xmlns="http://www.w3.org/2000/svg"
 width="1280.000000pt" height="705.000000pt" viewBox="0 0 1280.000000 705.000000"
 preserveAspectRatio="xMidYMid meet">
<metadata>
Created by potrace 1.15, written by Peter Selinger 2001-2017
</metadata>
<g transform="translate(0.000000,705.000000) scale(0.100000,-0.100000)"
fill="#000000" stroke="none">
<path d="M7045 7044 c-16 -2 -86 -11 -155 -20 -393 -47 -723 -155 -959 -311
-184 -123 -376 -340 -465 -527 -143 -300 -204 -603 -193 -961 11 -341 77 -665
231 -1139 35 -108 61 -196 58 -196 -14 0 -292 105 -396 150 -473 202 -786 424
-950 673 -64 98 -109 140 -182 174 -85 39 -153 49 -234 35 -104 -18 -152 -15
-227 14 -86 33 -118 36 -118 10 0 -14 19 -26 75 -49 80 -33 97 -34 325 -25 85
3 94 1 157 -30 64 -31 144 -105 133 -122 -3 -5 -25 -20 -50 -35 l-46 -26 -36
32 c-21 17 -57 41 -82 52 -38 17 -55 18 -120 12 -161 -18 -248 -5 -414 61 -87
35 -107 36 -107 8 0 -28 207 -105 338 -125 52 -7 86 -8 123 0 92 20 141 15
195 -21 26 -18 49 -38 51 -44 2 -6 -17 -28 -42 -49 l-46 -37 -47 20 c-101 44
-226 50 -308 16 -44 -19 -128 -18 -195 2 -53 16 -205 87 -224 105 -12 12 -42
11 -50 -2 -12 -18 23 -45 118 -92 149 -74 265 -95 355 -63 73 26 127 29 204
12 111 -25 112 -27 52 -87 -50 -50 -53 -51 -84 -40 -52 18 -137 13 -249 -15
-79 -19 -116 -24 -155 -19 -73 10 -171 42 -248 81 -77 39 -98 42 -98 15 0 -23
122 -89 225 -121 89 -28 220 -30 285 -6 52 20 185 32 217 19 22 -8 22 -8 -11
-62 l-34 -54 -128 -2 c-90 -1 -161 -9 -234 -25 -161 -35 -248 -21 -372 57 -19
13 -30 15 -38 7 -16 -16 -4 -36 38 -65 98 -68 218 -84 377 -50 116 25 246 37
299 27 33 -6 36 -9 30 -34 -3 -15 -7 -37 -10 -49 -3 -18 -13 -22 -66 -28 -35
-4 -113 -20 -175 -36 -62 -16 -133 -29 -158 -29 -63 0 -180 25 -282 61 -85 30
-113 29 -100 -4 7 -18 151 -71 250 -91 109 -23 170 -20 301 14 63 16 143 32
178 36 l63 6 105 -64 c621 -381 1301 -608 1822 -608 l128 0 20 -41 c12 -23 19
-43 17 -46 -3 -2 -38 0 -79 6 -205 29 -405 21 -677 -25 -326 -54 -742 -182
-1077 -330 -7 -3 -31 35 -57 89 -80 164 -240 311 -422 386 -153 64 -252 84
-425 85 -116 0 -176 -4 -240 -18 -175 -38 -333 -106 -495 -213 -128 -85 -129
-87 -122 -180 7 -102 37 -180 94 -243 53 -59 85 -77 203 -115 47 -14 112 -41
145 -58 83 -43 201 -164 242 -247 l32 -64 -36 -50 c-51 -71 -82 -142 -89 -207
l-6 -56 -77 -21 c-180 -49 -430 -55 -577 -14 -81 22 -103 17 -162 -33 -116
-98 -86 -264 77 -425 87 -86 156 -126 286 -166 86 -27 99 -28 305 -28 230 0
308 10 528 69 79 21 102 24 155 16 80 -12 170 -43 278 -97 80 -40 96 -44 203
-53 64 -6 120 -12 124 -15 4 -3 73 -16 152 -30 79 -14 148 -30 153 -35 6 -6 0
-15 -14 -23 -276 -168 -362 -230 -475 -343 -52 -52 -90 -101 -110 -140 -26
-55 -29 -69 -29 -165 0 -99 2 -110 32 -171 66 -134 220 -243 403 -287 87 -22
346 -52 620 -74 201 -16 864 -16 1040 0 684 62 1252 212 1763 465 70 35 130
60 134 56 11 -11 576 -123 773 -153 506 -78 956 -109 1280 -87 91 6 239 16
330 21 260 16 468 58 680 137 227 85 600 299 796 457 117 94 274 263 349 375
54 82 125 218 148 284 4 11 17 17 38 17 83 0 166 54 228 147 36 54 40 89 11
98 -27 8 -34 3 -76 -61 -21 -31 -53 -66 -73 -79 -43 -28 -98 -37 -93 -16 2 8
6 52 9 97 l6 83 47 29 c81 50 140 160 158 290 11 80 -2 216 -28 286 -49 129
-160 246 -234 246 -28 0 -34 6 -65 66 -19 36 -62 105 -95 152 -34 47 -60 88
-59 91 1 3 4 13 8 22 8 21 -22 52 -43 44 -9 -3 -46 25 -107 84 -76 73 -116
105 -214 168 -5 3 66 129 111 195 21 31 38 66 38 76 0 25 -23 44 -43 36 -16
-6 -88 -112 -143 -211 -29 -53 -38 -60 -61 -45 -13 9 29 98 104 219 48 79 53
116 16 121 -28 4 -71 -53 -147 -199 l-56 -107 -39 14 c-140 48 -374 91 -546
100 -167 8 -149 -9 -163 157 -14 173 -33 280 -73 412 -60 196 -171 361 -299
444 -53 35 -55 38 -56 82 0 55 -25 97 -65 112 -22 9 -29 18 -29 39 0 46 -18
78 -47 84 -24 5 -36 24 -90 133 -66 136 -120 204 -171 216 -23 5 -46 -2 -101
-29 -100 -51 -106 -65 -105 -241 1 -145 15 -251 60 -443 13 -57 24 -105 24
-107 0 -1 -14 -8 -30 -15 -34 -14 -75 -76 -94 -142 -12 -38 -19 -45 -112 -94
-54 -29 -160 -81 -236 -114 -130 -58 -139 -60 -160 -46 -33 23 -87 20 -133 -9
-49 -30 -70 -31 -137 -4 -54 21 -70 22 -229 3 l-56 -6 -7 33 c-10 56 -42 97
-108 140 -81 52 -159 75 -206 61 -27 -8 -41 -8 -61 2 -47 24 -89 29 -120 13
-29 -15 -30 -14 -36 13 -3 15 -3 39 1 54 6 23 11 26 54 26 60 0 105 -16 249
-89 220 -112 394 -171 502 -171 94 0 214 46 256 100 7 8 20 39 30 68 25 77 50
98 167 133 248 74 317 145 320 328 2 176 -77 264 -319 351 -158 57 -214 95
-262 177 -23 40 -25 49 -15 77 9 25 9 56 -3 142 -23 172 -23 171 -48 178 -19
4 -25 18 -40 89 -20 100 -22 162 -4 176 6 6 32 25 56 43 25 18 55 53 69 78 21
39 23 55 19 120 -8 144 -63 252 -202 398 -257 271 -592 444 -1000 517 -87 15
-415 29 -480 19z m439 -89 c141 -21 279 -58 392 -105 109 -45 81 -47 -55 -5
-235 73 -375 108 -471 118 l-35 4 35 1 c19 1 79 -5 134 -13z m-969 -95 c-27
-16 -58 -30 -68 -30 -63 0 -387 -153 -487 -229 -36 -28 -122 -105 -191 -173
-123 -119 -128 -126 -182 -238 -77 -158 -153 -343 -171 -415 -20 -78 -43 -235
-52 -353 -8 -115 -24 -132 -17 -20 22 402 144 753 342 989 207 246 412 370
796 483 77 22 85 19 30 -14z m1869 -314 c80 -68 176 -183 213 -253 61 -116 42
-105 -45 27 -84 128 -125 173 -257 289 -42 36 -44 39 -10 15 22 -15 67 -50 99
-78z m-689 -466 c-27 -5 -70 -8 -95 -8 -37 0 -40 1 -20 8 14 4 57 8 95 8 70
-1 70 -1 20 -8z m384 -110 c126 -21 287 -58 372 -86 46 -15 47 -16 42 -52 -2
-20 4 -76 15 -124 l20 -88 -25 0 c-14 0 -80 10 -147 22 -99 18 -160 22 -341
22 -246 1 -293 -7 -382 -67 -90 -61 -118 -129 -117 -287 0 -87 5 -118 26 -178
36 -101 82 -175 154 -247 109 -111 214 -144 391 -125 304 32 573 185 573 324
0 25 1 24 63 -22 41 -31 96 -60 157 -83 157 -57 250 -108 283 -155 56 -80 47
-236 -16 -302 -42 -44 -65 -55 -178 -88 -105 -30 -175 -62 -202 -92 -10 -11
-31 -51 -46 -89 -32 -79 -66 -105 -163 -122 -119 -21 -252 20 -553 170 -149
74 -220 94 -298 83 -59 -7 -74 -22 -83 -80 -15 -100 16 -182 101 -265 l55 -54
-44 -7 c-24 -3 -74 -24 -111 -47 -67 -40 -68 -40 -159 -38 -73 2 -99 -2 -130
-17 -49 -25 -76 -69 -76 -126 0 -86 51 -131 168 -151 63 -10 118 -5 202 18 32
9 102 17 165 18 97 1 116 4 160 28 80 42 197 138 230 189 26 41 33 47 57 42
15 -3 65 2 111 12 l84 18 54 -23 c75 -33 137 -32 189 3 23 15 48 25 56 22 25
-9 15 -112 -24 -266 l-37 -145 -110 -57 c-123 -64 -305 -138 -500 -205 -121
-42 -137 -45 -225 -44 -186 3 -498 43 -760 97 -478 100 -1002 310 -1363 547
l-78 51 -59 185 c-33 102 -58 187 -56 189 2 2 18 -22 36 -52 46 -82 158 -222
236 -297 284 -272 621 -306 979 -100 33 19 88 62 123 95 107 102 150 223 138
386 -8 109 -93 470 -140 598 -40 107 -58 350 -35 478 17 99 59 211 102 277
119 179 289 282 535 322 124 20 419 13 581 -15z m1513 -901 c20 -30 56 -96 78
-148 36 -81 40 -95 28 -108 -13 -12 -17 -8 -33 34 -27 72 -73 163 -109 213
-31 43 -37 75 -12 67 6 -2 28 -28 48 -58z m-151 -184 c17 -139 57 -336 95
-467 30 -107 33 -122 20 -146 -13 -26 -14 -25 -31 34 -75 257 -116 480 -117
638 -1 115 15 194 19 91 1 -33 8 -100 14 -150z m105 43 c20 -40 47 -100 59
-133 l23 -60 -24 -30 c-13 -17 -24 -42 -24 -57 0 -16 -4 -28 -9 -28 -11 0 -24
59 -46 201 -23 157 -26 179 -20 179 3 0 21 -33 41 -72z m220 -185 c-2 -10 -10
-37 -17 -60 -12 -41 -14 -43 -51 -43 -21 0 -38 5 -38 10 0 14 90 110 102 110
5 0 7 -8 4 -17z m-5562 -103 c74 -113 245 -263 437 -385 194 -124 622 -323
842 -391 46 -14 56 -21 50 -33 -10 -21 -9 -99 2 -130 l8 -24 -126 6 c-273 14
-533 98 -794 258 -147 90 -332 248 -410 350 -38 50 -59 61 -69 34 -19 -48 204
-261 417 -402 280 -183 575 -281 874 -289 130 -4 141 -6 159 -26 22 -28 66
-113 77 -150 l8 -28 -124 0 c-493 0 -1133 210 -1742 572 -72 43 -134 82 -138
87 -17 29 44 182 99 249 76 91 209 213 301 275 55 36 101 67 101 67 1 0 13
-18 28 -40z m5666 1 c0 -28 0 -28 -40 -18 -22 6 -40 14 -40 18 0 10 63 38 72
33 4 -3 8 -18 8 -33z m40 -128 c201 -98 326 -333 375 -699 19 -143 28 -412 18
-544 l-8 -105 -65 -22 c-36 -12 -84 -22 -107 -23 -50 0 -48 -11 -32 160 13
144 13 443 -2 575 -34 319 -127 526 -284 629 -30 20 -60 46 -66 58 -11 21 -10
21 42 15 31 -4 86 -22 129 -44z m-196 -123 c26 -44 33 -152 12 -210 l-16 -45
28 -22 27 -23 17 23 c10 12 23 44 30 70 11 43 14 47 25 31 7 -10 13 -42 13
-73 0 -61 -31 -125 -76 -158 -26 -19 -26 -20 -10 -51 20 -38 34 -34 91 25 41
42 45 31 20 -55 -27 -90 -79 -134 -180 -153 -66 -12 -110 4 -155 59 l-29 35
-27 -32 c-50 -60 -718 -550 -999 -733 -248 -162 -764 -437 -968 -517 -119 -46
-107 -46 -285 -5 -88 20 -130 24 -274 24 -144 0 -190 4 -293 25 -147 31 -327
86 -332 102 -6 17 82 78 152 107 85 34 231 62 450 86 273 29 406 56 700 139
493 140 869 288 1147 452 196 115 567 377 627 442 l24 26 -31 35 c-30 34 -52
90 -52 131 0 28 29 138 39 148 5 5 23 -34 41 -87 17 -53 35 -96 39 -96 16 0
103 69 126 100 52 70 64 147 39 247 l-7 27 34 -21 c19 -12 43 -36 53 -53z
m-3977 -210 c104 -129 235 -259 312 -308 88 -57 161 -83 266 -92 l90 -9 -100
3 c-198 7 -365 95 -527 281 -67 76 -188 249 -188 267 0 20 76 -54 147 -142z
m3552 -142 c1 -12 -59 -57 -186 -141 -272 -180 -307 -201 -300 -183 4 9 12 54
19 100 l12 84 105 47 c58 25 158 72 221 104 l115 59 6 -27 c4 -14 7 -34 8 -43z
m-1139 -60 c0 -50 -18 -83 -70 -133 l-42 -40 37 57 c44 68 56 133 31 169 -26
38 -18 45 14 14 23 -22 30 -38 30 -67z m1869 -177 c6 -66 11 -149 11 -186 l0
-67 -42 8 c-119 21 -563 -15 -768 -63 -14 -3 35 40 110 97 74 56 145 111 157
123 21 18 24 19 40 5 45 -39 85 -51 156 -45 85 7 164 44 206 94 16 20 47 73
68 119 45 98 45 97 62 -85z m-764 100 c-27 -24 -253 -183 -350 -246 -142 -92
-135 -88 -135 -73 0 7 35 34 78 60 42 26 151 97 242 158 151 101 190 125 165
101z m-3475 -145 c390 -235 852 -409 1355 -511 147 -29 250 -44 570 -81 l60
-7 -89 -28 c-49 -16 -163 -47 -254 -70 l-165 -41 -169 21 c-211 27 -407 63
-521 96 -108 31 -119 31 -115 3 2 -16 17 -26 58 -40 71 -24 307 -73 432 -89
54 -7 94 -16 90 -20 -4 -3 -63 -12 -132 -18 -69 -7 -160 -19 -202 -26 -71 -12
-81 -12 -128 6 -28 10 -99 30 -158 44 -134 31 -181 50 -362 141 -196 99 -203
104 -240 169 -28 49 -85 204 -77 211 1 1 49 -27 107 -62 137 -85 199 -117 216
-110 31 12 9 36 -78 86 -159 90 -307 190 -321 218 -8 15 -27 48 -41 74 l-28
48 22 35 c12 19 23 35 26 35 2 0 67 -38 144 -84z m2095 64 c7 -11 -53 -40 -82
-40 -13 0 41 36 74 49 1 1 5 -4 8 -9z m-491 -126 c17 -7 24 -13 15 -14 -20 0
-69 37 -69 53 0 7 5 4 11 -6 6 -11 25 -25 43 -33z m215 -8 c-11 -9 -63 -17
-54 -8 6 6 19 12 30 14 20 4 32 1 24 -6z m-116 -13 c-13 -2 -33 -2 -45 0 -13
2 -3 4 22 4 25 0 35 -2 23 -4z m-4033 -353 c33 -17 60 -32 60 -34 0 -6 -114
41 -172 70 -27 14 -48 26 -48 29 0 7 91 -30 160 -65z m5407 -100 c-10 -14 -17
-18 -22 -10 -4 6 1 17 11 25 25 18 30 11 11 -15z m-3180 -1 l52 -10 -6 -37
c-3 -20 -7 -38 -8 -40 -1 -1 -32 18 -69 43 -37 25 -74 45 -81 45 -8 0 -17 5
-20 10 -7 11 33 7 132 -11z m-3430 -67 c-31 -31 -47 -41 -47 -30 0 16 81 91
89 82 3 -3 -16 -26 -42 -52z m6563 -31 c15 -80 12 -141 -9 -188 -26 -56 -96
-130 -129 -137 -43 -9 -563 -66 -602 -66 -30 0 -12 12 130 92 190 105 296 171
464 286 66 45 123 79 128 74 4 -4 12 -32 18 -61z m-2851 -192 c14 -42 0 -36
-57 24 -61 65 -102 143 -102 194 0 37 2 36 75 -76 40 -62 78 -126 84 -142z
m253 47 c36 -14 106 -35 155 -47 137 -31 133 -29 87 -48 -64 -26 -126 -66
-168 -110 l-39 -40 -88 45 -88 46 -16 56 c-9 31 -36 94 -60 139 l-43 82 96
-48 c53 -26 127 -60 164 -75z m2643 -83 c-8 -28 -31 -75 -51 -105 -38 -55
-115 -140 -122 -134 -2 2 2 22 8 45 7 28 27 56 65 92 30 29 67 76 81 106 15
29 28 52 30 50 2 -2 -3 -26 -11 -54z m-2818 -135 c80 -49 198 -104 306 -143
42 -15 77 -30 77 -32 0 -7 -74 6 -165 29 -100 24 -185 71 -250 137 -27 28 -46
51 -42 51 4 0 37 -19 74 -42z m2577 -55 c-21 -112 -23 -115 -103 -140 -140
-44 -233 -55 -503 -60 -142 -3 -292 -2 -334 2 l-76 7 54 25 c29 13 103 48 163
78 l110 53 145 12 c80 6 231 22 335 35 105 12 196 23 203 24 10 1 11 -9 6 -36z
m3219 -98 c-132 -112 -133 -439 -3 -588 22 -24 53 -50 71 -57 26 -11 28 -15
15 -22 -23 -13 -77 7 -109 40 -37 39 -74 118 -93 198 -20 86 -14 256 11 326
18 50 101 138 131 138 12 0 5 -11 -23 -35z m145 -64 c110 -110 122 -410 20
-496 -36 -30 -57 -31 -92 -4 -93 73 -128 329 -63 456 41 80 84 94 135 44z
m-121 -687 c17 -45 -31 -239 -91 -367 -51 -107 -220 -341 -258 -355 -4 -2 19
37 52 86 119 179 213 401 241 575 11 63 16 77 31 77 10 0 21 -7 25 -16z
m-9677 -338 c25 -14 41 -26 37 -26 -15 0 -102 48 -127 70 l-25 22 35 -20 c19
-11 55 -32 80 -46z m1635 -1255 c86 -54 161 -71 350 -80 166 -8 172 -9 225
-39 l55 -32 -35 0 c-62 0 -371 40 -434 56 -125 32 -250 108 -307 186 -47 66
-33 67 34 1 34 -34 85 -75 112 -92z m2430 -82 c-278 -56 -529 -84 -882 -98
-198 -9 -590 -5 -580 5 2 2 172 17 378 34 206 17 527 44 714 59 187 16 378 29
425 29 l85 0 -140 -29z"/>
<path d="M7928 5850 c-87 -11 -167 -34 -244 -72 -79 -38 -113 -72 -98 -96 17
-27 38 -25 90 8 86 54 192 81 344 89 127 6 135 7 138 27 2 11 -3 26 -10 32
-19 15 -141 22 -220 12z"/>
<path d="M2834 5631 c-141 -64 -113 -231 56 -333 148 -89 341 -126 715 -138
255 -7 281 -11 365 -55 44 -23 116 -90 152 -142 16 -24 35 -43 42 -43 67 0
-48 155 -165 223 -94 54 -126 60 -399 67 -279 9 -398 24 -546 71 -152 48 -243
121 -260 208 -12 57 49 111 125 111 45 0 50 -31 25 -142 -5 -24 -3 -28 14 -28
26 0 40 25 48 84 8 56 0 90 -28 116 -28 26 -89 26 -144 1z"/>
<path d="M1555 5156 c-108 -47 -87 -216 42 -345 75 -75 177 -125 288 -141 89
-14 165 -4 341 44 231 63 495 46 657 -42 50 -27 77 -21 63 13 -9 23 -122 72
-224 96 -75 18 -109 20 -242 16 -140 -4 -169 -8 -295 -42 -224 -61 -350 -52
-482 34 -114 73 -192 210 -162 283 14 34 43 48 102 48 71 0 134 -44 152 -107
5 -18 1 -25 -19 -33 -29 -11 -35 -37 -10 -47 24 -9 63 14 75 43 20 55 -32 142
-106 175 -47 22 -136 24 -180 5z"/>
<path d="M4387 4803 c-4 -3 -7 -13 -7 -21 0 -22 103 -145 215 -257 213 -212
393 -333 685 -461 66 -29 77 -31 90 -19 19 20 4 34 -70 65 -86 35 -279 135
-342 177 -157 104 -354 285 -482 441 -67 81 -76 89 -89 75z"/>
<path d="M11635 3956 c-35 -10 -40 -15 -40 -41 0 -29 2 -30 40 -27 150 10 242
5 300 -17 145 -53 299 -178 410 -332 33 -45 87 -137 120 -203 47 -95 65 -122
83 -124 14 -2 25 3 29 14 16 41 -77 230 -184 372 -136 182 -312 313 -479 357
-69 18 -222 19 -279 1z"/>
<path d="M11710 3799 c-102 -18 -159 -63 -116 -95 13 -9 29 -8 77 7 253 79
540 -110 727 -478 31 -62 63 -115 70 -118 17 -6 39 4 47 23 8 21 -60 161 -131
270 -70 107 -225 263 -314 315 -115 67 -249 95 -360 76z"/>
<path d="M1000 3774 c-187 -48 -399 -223 -477 -391 -91 -197 -18 -436 196
-640 56 -54 77 -63 99 -41 21 21 14 34 -53 99 -61 59 -67 69 -96 158 -71 220
-42 366 100 511 99 100 237 180 368 214 108 28 150 18 261 -61 216 -154 349
-509 246 -656 -17 -24 -50 -51 -79 -66 -46 -24 -59 -26 -182 -26 l-133 0 -11
-33 c-6 -18 -9 -35 -7 -37 26 -23 476 -175 670 -225 94 -24 118 -20 118 21 0
23 -17 31 -145 64 -55 14 -170 49 -255 77 l-155 51 50 12 c73 17 127 48 172
99 200 227 -74 777 -432 871 -73 19 -182 18 -255 -1z"/>
<path d="M11712 3579 c-106 -18 -153 -52 -119 -87 15 -15 22 -15 87 2 99 26
197 19 281 -21 126 -59 249 -188 339 -356 34 -62 46 -77 63 -75 37 6 42 31 16
84 -72 150 -225 326 -340 391 -97 56 -226 80 -327 62z"/>
<path d="M1203 3510 c-61 -13 -127 -44 -197 -94 -127 -91 -177 -172 -179 -291
-1 -94 16 -161 73 -280 77 -162 125 -213 160 -170 10 12 2 31 -44 108 -31 51
-56 95 -56 99 0 3 9 8 19 11 13 3 22 -3 31 -22 37 -84 133 -172 250 -231 130
-65 335 -125 634 -185 198 -40 239 -41 244 -9 2 11 -3 26 -10 31 -7 6 -76 23
-153 38 -453 85 -687 167 -814 281 -62 57 -73 77 -46 88 10 3 15 19 15 45 l0
40 29 -17 c45 -25 81 -8 103 48 22 60 22 103 -1 131 -54 67 -248 -23 -268
-123 -10 -49 -23 -11 -23 67 0 85 23 142 83 203 73 76 202 130 257 109 24 -9
35 -9 51 1 18 12 24 11 45 -9 14 -13 40 -54 59 -92 58 -116 46 -197 -40 -262
-64 -50 -29 -108 40 -65 88 54 128 163 100 271 -50 197 -199 311 -362 279z"/>
<path d="M11740 3313 c-33 -6 -50 -21 -50 -44 0 -26 10 -29 107 -32 131 -3
211 -49 315 -179 79 -98 74 -103 -14 -15 -87 88 -141 121 -223 136 -55 10 -85
1 -85 -27 0 -27 20 -42 55 -42 78 0 192 -84 271 -200 35 -52 53 -70 70 -70 13
0 27 7 32 15 7 13 10 11 20 -10 14 -30 48 -31 66 -2 24 37 -117 265 -221 356
-99 88 -236 133 -343 114z"/>
<path d="M12580 3105 c-9 -11 -6 -32 18 -102 60 -177 106 -409 116 -583 6 -94
5 -94 -13 40 -32 230 -88 465 -113 482 -19 12 -34 10 -48 -7 -9 -11 -6 -38 19
-132 73 -281 101 -562 81 -820 -10 -138 -10 -167 2 -174 21 -14 36 -10 53 14
l17 22 -6 -30 c-3 -16 -10 -66 -17 -109 -10 -73 -9 -81 7 -93 45 -33 58 -6 80
169 28 224 25 608 -5 808 -30 200 -102 478 -134 518 -13 16 -42 15 -57 -3z"/>
<path d="M11762 2990 c-28 -12 -38 -36 -22 -55 8 -10 31 -14 71 -14 106 2 202
-69 276 -206 32 -58 43 -70 63 -70 96 0 -69 261 -205 324 -55 26 -147 36 -183
21z"/>
<path d="M12403 2913 c-3 -9 -1 -34 5 -57 78 -274 93 -369 99 -622 4 -166 2
-239 -12 -339 -16 -117 -16 -129 -1 -143 13 -13 20 -14 34 -6 58 37 80 478 37
759 -24 159 -74 360 -101 403 -17 26 -52 29 -61 5z"/>
<path d="M12285 2784 c-9 -9 -14 -23 -11 -30 3 -9 -2 -14 -13 -14 -40 0 -43
-23 -17 -114 44 -150 59 -290 52 -471 -3 -88 -7 -171 -8 -184 -6 -52 61 -53
72 0 4 19 11 24 35 24 27 0 30 4 37 40 10 60 9 258 -2 360 -20 172 -69 371
-98 393 -21 16 -27 15 -47 -4z"/>
<path d="M334 2750 c-208 -54 -321 -175 -331 -354 -12 -198 72 -357 225 -429
62 -30 75 -32 172 -32 91 0 111 3 150 24 61 32 80 50 80 77 0 35 -33 39 -77
10 -21 -13 -58 -30 -83 -36 -86 -23 -240 11 -240 52 0 11 -16 38 -35 61 -80
94 -82 266 -4 414 16 30 29 63 29 72 0 23 55 48 164 75 94 24 120 42 97 70
-17 21 -59 19 -147 -4z"/>
<path d="M666 2599 c-197 -16 -282 -60 -346 -180 -58 -109 -53 -231 13 -305
61 -70 140 -85 198 -37 58 49 78 147 40 194 -18 22 -19 22 -55 5 -25 -12 -43
-29 -52 -52 -19 -46 -48 -45 -73 3 -39 74 23 189 126 235 24 10 43 25 43 32 0
21 33 27 180 33 178 7 312 -11 639 -87 326 -75 584 -125 605 -117 23 9 31 36
15 52 -8 8 -115 34 -239 59 -124 24 -310 65 -415 90 -291 69 -486 91 -679 75z"/>
<path d="M12172 2537 c-7 -8 -6 -32 3 -77 20 -96 28 -264 17 -354 -6 -43 -8
-84 -5 -92 11 -29 55 -26 69 4 4 9 9 85 11 167 5 153 -14 322 -39 352 -13 17
-42 17 -56 0z"/>
<path d="M899 2410 c-88 -47 -147 -162 -151 -297 -2 -55 1 -68 28 -105 38 -56
138 -122 221 -148 229 -71 421 62 380 262 -8 37 -8 37 35 50 27 8 97 13 183
12 117 0 160 -5 258 -28 125 -29 147 -27 147 15 0 24 -22 34 -138 59 -207 45
-370 45 -507 0 -90 -30 -89 -29 -64 -85 32 -72 23 -128 -29 -176 -59 -55 -117
-68 -212 -48 -57 12 -76 28 -131 113 -57 87 -52 152 18 218 34 32 92 58 131
58 39 0 91 53 76 78 -27 43 -180 57 -245 22z"/>
<path d="M1284 2355 c-83 -18 -153 -55 -198 -105 -73 -81 -87 -161 -37 -211
26 -25 37 -29 88 -29 67 0 83 11 83 56 0 23 -8 39 -26 53 l-26 20 29 36 c15
20 38 42 51 51 12 8 22 23 22 33 0 26 26 31 167 31 108 0 123 2 132 18 5 10 6
24 2 31 -20 31 -177 40 -287 16z"/>
<path d="M12293 1683 c-7 -3 -32 -41 -55 -86 -82 -157 -199 -245 -333 -250
-45 -2 -69 -8 -76 -17 -12 -21 -11 -26 8 -46 14 -14 30 -16 92 -11 104 8 181
48 269 141 67 71 142 195 142 235 0 22 -27 41 -47 34z"/>
<path d="M12127 1595 c-69 -75 -137 -115 -211 -124 -51 -6 -74 -26 -63 -55 7
-19 80 -22 139 -6 86 24 238 159 238 211 0 10 -9 23 -20 29 -18 10 -28 3 -83
-55z"/>
<path d="M12425 1542 c-6 -4 -39 -65 -74 -137 -56 -112 -75 -140 -141 -207
-104 -106 -162 -132 -285 -131 -65 0 -106 6 -148 21 -59 22 -81 21 -91 -4 -10
-25 5 -43 47 -58 205 -74 397 -32 536 119 96 104 226 349 204 383 -12 19 -33
26 -48 14z"/>
<path d="M12520 1393 c-5 -10 -29 -56 -53 -103 -65 -129 -113 -197 -207 -291
-111 -112 -182 -148 -305 -158 -59 -5 -89 -11 -95 -21 -13 -21 -12 -26 7 -46
14 -14 29 -16 89 -11 230 20 424 188 583 505 55 111 59 142 15 142 -13 0 -28
-8 -34 -17z"/>
<path d="M12578 1268 c-65 -157 -156 -297 -264 -405 -64 -63 -101 -90 -169
-124 -82 -41 -94 -44 -185 -47 -111 -5 -164 8 -267 64 -63 34 -86 35 -97 8
-11 -28 12 -51 88 -87 235 -115 457 -78 657 111 110 103 188 210 261 358 66
134 71 167 25 172 -25 3 -30 -2 -49 -50z"/>
</g>
</svg>
