<?xml version="1.0" encoding="iso-8859-1"?>
<!-- Uploaded to: SVG Repo, www.svgrepo.com, Generator: SVG Repo Mixer Tools -->
<svg version="1.1" id="Layer_1" xmlns="http://www.w3.org/2000/svg" xmlns:xlink="http://www.w3.org/1999/xlink" 
	 viewBox="0 0 512 512" xml:space="preserve">
<polygon style="fill:#73C1DD;" points="384.224,108.52 127.777,108.52 151.743,215.484 360.258,215.484 "/>
<g>
	<polygon style="fill:#F2F2F2;" points="397.539,49.095 114.462,49.095 127.777,108.52 384.224,108.52 	"/>
	<polygon style="fill:#F2F2F2;" points="151.743,215.484 165.784,278.149 346.218,278.149 360.258,215.484 	"/>
</g>
<polygon style="fill:#D35B38;" points="224.943,49.095 287.058,49.095 284.137,10.199 227.864,10.199 "/>
<rect x="217.101" y="278.153" style="fill:#F2F2F2;" width="77.789" height="223.648"/>
<g>
	<path style="fill:#4D3D36;" d="M405.5,42.72c-1.935-2.417-4.865-3.825-7.962-3.825H296.52l-2.213-29.46
		C293.908,4.113,289.474,0,284.137,0h-56.273c-5.336,0-9.771,4.113-10.171,9.435l-2.213,29.46H114.462
		c-3.096,0-6.026,1.406-7.962,3.825c-1.936,2.417-2.668,5.583-1.992,8.605l13.315,59.425l23.966,106.964l14.04,62.665
		c1.043,4.658,5.179,7.969,9.952,7.969h41.122v213.453c0,5.633,4.566,10.199,10.199,10.199h77.791
		c5.633,0,10.199-4.566,10.199-10.199V288.348h41.122c4.774,0,8.909-3.312,9.952-7.969l14.04-62.665l23.966-106.964l13.315-59.425
		C408.168,48.303,407.435,45.138,405.5,42.72z M237.326,20.398h37.348l1.389,18.497h-40.128L237.326,20.398z M384.801,59.294
		l-8.744,39.026H135.944L127.2,59.294H384.801z M193.941,118.719v86.566H159.91l-19.395-86.566H193.941z M284.697,491.602h-57.393
		V288.348h57.393V491.602z M173.95,267.949l-9.47-42.267h183.041l-9.47,42.267H173.95z M352.091,205.284H214.339v-86.566h83.323
		v33.249c0,5.633,4.566,10.199,10.199,10.199s10.199-4.566,10.199-10.199v-33.249h53.425L352.091,205.284z"/>
	<path style="fill:#4D3D36;" d="M307.862,172.367c-5.633,0-10.199,4.566-10.199,10.199v1.896c0,5.633,4.566,10.199,10.199,10.199
		s10.199-4.566,10.199-10.199v-1.896C318.061,176.934,313.495,172.367,307.862,172.367z"/>
</g>
</svg>